HIERARCHY
ROOT pelvis
{
  OFFSET 0 100 0
  CHANNELS 6 Xposition Yposition Zposition Zrotation Xrotation Yrotation
  JOINT pelvis_right_femur
  {
    OFFSET -10.78128 -3.44521 -0.5502486
    CHANNELS 3 Zrotation Xrotation Yrotation
    JOINT right_femur_tibia
    {
      OFFSET -0.8047443 -44.0398 -0.1307829
      CHANNELS 3 Zrotation Xrotation Yrotation
      JOINT right_tibia_foot
      {
        OFFSET 3.006224 -47.83518 -5
        CHANNELS 3 Zrotation Xrotation Yrotation
        End Site
        {
          OFFSET 0 -5 15
        }
      }
    }
  }
  JOINT pelvis_left_femur
  {
    OFFSET 10.78128 -3.44521 -0.5502486
    CHANNELS 3 Zrotation Xrotation Yrotation
    JOINT left_femur_tibia
    {
      OFFSET 0.8047443 -44.0398 -0.1307829
      CHANNELS 3 Zrotation Xrotation Yrotation
      JOINT left_tibia_foot
      {
        OFFSET -4.370144 -48.10324 -4.275266
        CHANNELS 3 Zrotation Xrotation Yrotation
        End Site
        {
          OFFSET 0 -5 15
        }
      }
    }
  }
  JOINT pelvis_spine1
  {
    OFFSET 0 6.468898 -3.129235
    CHANNELS 3 Zrotation Xrotation Yrotation
    JOINT spine1
    {
      OFFSET 0 23.15396 4.99043
      CHANNELS 3 Zrotation Xrotation Yrotation
      JOINT spine2
      {
        OFFSET 0 20.79997 -5.064912
        CHANNELS 3 Zrotation Xrotation Yrotation
        JOINT neck
        {
          OFFSET 0 14.38658 9.616178
          CHANNELS 3 Zrotation Xrotation Yrotation
          End Site
          {
            OFFSET 0 20 0
          }
        }
      }
      JOINT right_manubrium
      {
        OFFSET -5.722621 16.35077 3.967754
        CHANNELS 3 Zrotation Xrotation Yrotation
        JOINT right_clavicle
        {
          OFFSET -13.16364 1.694482 -4.693211
          CHANNELS 3 Zrotation Xrotation Yrotation
          JOINT right_humerus
          {
            OFFSET -28.5034 -0.3100689 -2.792744
            CHANNELS 3 Zrotation Xrotation Yrotation
            JOINT right_radius
            {
              OFFSET -25.15693 0.02248979 -1.271978
              CHANNELS 3 Zrotation Xrotation Yrotation
              End Site
              {
                OFFSET -15 0 0
              }
            }
          }
        }
      }
      JOINT left_manubrium
      {
        OFFSET 5.722621 16.35077 3.967754
        CHANNELS 3 Zrotation Xrotation Yrotation
        JOINT left_clavicle
        {
          OFFSET 13.16364 1.694482 -4.693211
          CHANNELS 3 Zrotation Xrotation Yrotation
          JOINT left_humerus
          {
            OFFSET 29.39168 -1.063119 -2.237045
            CHANNELS 3 Zrotation Xrotation Yrotation
            JOINT left_radius
            {
              OFFSET 24.59957 -0.9528479 0.9047498
              CHANNELS 3 Zrotation Xrotation Yrotation
              End Site
              {
                OFFSET 15 -0 -0
              }
            }
          }
        }
      }
    }
  }
}
MOTION
Frames: 23
Frame Time: 0.0416666666667
-1590.73 100.1261 2145.337 -4.4371 -0.567987 -83.2038 4.064212 -24.96713 -2.338944 -0 7.441791 -0 -8.75252 5.022297 -2.51744 -4.973575 16.1996 -8.569835 -0 24.90829 -0 1.618311 -17.04165 15.18852 1.64047 -3.655941 6.805492 0.8666396 17.20216 -9.010025 0.3991018 19.59506 4.232144 2.619723 -19.98808 3.996284 -3.451475 -26.18102 13.61356 96.88293 17.00231 -24.3386 -0 0 16.25644 -23.24757 12.64044 7.976951 3.699719 -29.96581 -11.3787 -85.79768 7.612535 22.13954 0 0 -30.48423 12.60571 13.59574 -3.477029
-1597.326 100.0798 2145.886 -4.330493 -0.2334479 -83.32848 4.9749 -22.93473 -1.464495 -0 8.491736 -0 -9.283611 4.614824 -2.471978 -4.601933 14.85717 -8.240961 -0 31.83654 -0 0.9259503 -14.46408 14.27231 1.630699 -3.644096 6.878178 0.8400869 17.2125 -8.944424 0.3877251 19.56003 4.158893 2.61451 -19.86654 3.911789 -3.368773 -26.38596 13.60804 96.62057 17.13871 -23.92619 -0 0 16.77598 -23.20541 12.70366 8.096031 3.64167 -29.76776 -11.33195 -86.08004 7.572071 22.74907 0 0 -29.63551 12.47787 13.60975 -3.330908
-1603.978 100.531 2146.39 -4.769414 -0.08456015 -83.58521 5.670054 -19.59087 -0.632445 -0 10.26455 -0 -9.886622 3.97548 -2.465585 -4.174026 12.58847 -7.92056 -0 39.41211 -0 0.1294533 -11.68755 13.7555 1.624122 -3.625587 6.994455 0.7986762 17.21812 -8.823414 0.3892384 19.51715 4.01329 2.544669 -19.70304 3.809473 -3.297023 -26.75093 13.57483 96.22488 17.29459 -23.19242 -0 0 17.60146 -23.15101 12.83549 8.372249 3.502196 -29.39744 -11.22551 -86.55775 7.618761 23.8025 0 0 -28.25099 12.14772 13.64812 -2.886106
-1610.521 101.3964 2146.833 -5.689452 -0.1466978 -84.00525 6.125799 -15.27948 0.01770005 -0 11.94509 -0 -10.40013 3.022116 -2.479538 -3.704423 9.258968 -7.480622 -0 46.51811 -0 -0.4607827 -9.11443 13.78785 1.622781 -3.604625 7.156442 0.7454594 17.22172 -8.652924 0.4040241 19.46383 3.79577 2.40573 -19.50656 3.693823 -3.243494 -27.27182 13.51596 95.71122 17.45222 -22.16129 -0 0 18.71195 -23.08915 13.03702 8.80114 3.279364 -28.86804 -11.06054 -87.21976 7.738409 25.27452 0 0 -26.39324 11.61984 13.6985 -2.145478
-1616.806 102.4895 2147.219 -6.830195 -0.3473629 -84.5927 6.392636 -10.49259 0.3923843 -0 12.76863 -0 -10.73116 1.696828 -2.428694 -3.146434 4.805823 -6.814133 -0 51.78575 -0 -0.627942 -7.07618 14.30688 1.627137 -3.584671 7.364793 0.6836924 17.22519 -8.439987 0.4310537 19.39751 3.510901 2.199048 -19.28576 3.568622 -3.210331 -27.93664 13.43492 95.09482 17.59913 -20.86605 -0 0 20.07925 -23.02313 13.30402 9.369511 2.977026 -28.1979 -10.83887 -88.05252 7.904623 27.12326 0 0 -24.13314 10.91364 13.74352 -1.134954
-1622.76 103.5594 2147.575 -7.818192 -0.5466988 -85.31467 6.547365 -5.703171 0.4973958 -0 12.35481 -0 -10.85234 -0.1082119 -2.238198 -2.400661 -0.6254797 -5.906753 -0 53.9871 -0 -0.358612 -5.704439 15.08575 1.635672 -3.567875 7.616218 0.6166713 17.22845 -8.19295 0.4682217 19.3177 3.16901 1.932753 -19.0498 3.438113 -3.195479 -28.72072 13.3361 94.39407 17.72808 -19.35421 -0 0 21.65805 -22.95511 13.62467 10.0534 2.606428 -27.4127 -10.56407 -89.03325 8.08456 29.27868 0 0 -21.55837 10.06535 13.76477 0.09386831
-1628.396 104.3587 2147.951 -8.337157 -0.6182408 -86.1113 6.626098 -1.213863 0.4464317 -0 10.88825 -0 -10.76233 -2.536973 -1.920694 -1.386715 -6.597916 -4.854401 -0 52.47319 -0 0.1548188 -4.913817 15.86846 1.645099 -3.554878 7.901904 0.5474599 17.22922 -7.921751 0.5126587 19.22743 2.786917 1.622081 -18.80853 3.307439 -3.194056 -29.58476 13.22452 93.63334 17.8363 -17.69088 -0 0 23.38018 -22.88684 13.97891 10.81726 2.186706 -26.54722 -10.24342 -90.1243 8.246053 31.63669 0 0 -18.77963 9.127179 13.74784 1.464901
-1633.801 104.7084 2148.4 -8.281695 -0.5195321 -86.91825 6.594192 2.885298 0.4012048 -0 9.008901 -0 -10.46184 -5.62035 -1.575866 -0.1353658 -12.43381 -3.830552 -0 47.42499 -0 0.631785 -4.500018 16.49643 1.651177 -3.545045 8.20737 0.4786465 17.22407 -7.638224 0.5608833 19.13315 2.387336 1.288902 -18.57171 3.182025 -3.199463 -30.47671 13.10603 92.84387 17.92474 -15.95912 -0 0 25.15575 -22.82026 14.34002 11.61484 1.744081 -25.64567 -9.890034 -91.27096 8.364195 34.06266 0 0 -15.93086 8.163344 13.68707 2.882767
-1639.096 104.5351 2148.952 -7.798602 -0.3046553 -87.6864 6.37358 6.64857 0.4729412 -0 7.506377 -0 -9.975486 -9.08806 -1.31154 1.166634 -17.38982 -3.04354 -0 39.80969 -0 0.8574947 -4.266681 16.95826 1.649853 -3.53698 8.513679 0.4122784 17.20993 -7.356191 0.6088888 19.04351 1.996895 0.960123 -18.3479 3.0664 -3.204159 -31.33717 12.98759 92.0626 17.99765 -14.25592 -0 0 26.88096 -22.75742 14.67812 12.39224 1.309719 -24.75991 -9.524025 -92.40428 8.425986 36.40376 0 0 -13.16211 7.243374 13.58828 4.241944
-1644.417 103.8768 2149.612 -7.201271 -0.08308985 -88.39085 5.900293 10.16078 0.654938 -0 7.027242 -0 -9.386824 -12.30804 -1.163228 2.220079 -20.868 -2.69103 -0 31.09697 -0 0.7673254 -4.105308 17.35521 1.638392 -3.529092 8.799593 0.3500397 17.18558 -7.091011 0.6524027 18.96737 1.643029 0.6645405 -18.1436 2.96341 -3.200608 -32.10689 12.87708 91.32938 18.06178 -12.68403 -0 0 28.44996 -22.70014 14.965 13.09348 0.9163146 -23.94503 -9.171523 -93.44879 8.432105 38.50747 0 0 -10.62661 6.433455 13.46819 5.43952
-1649.903 102.8677 2150.365 -6.815885 0.03962717 -89.02951 5.171878 13.44043 0.8321498 -0 7.930741 -0 -8.837472 -14.44019 -1.074672 2.738006 -22.57029 -2.892066 -0 22.85616 -0 0.430109 -4.008695 17.81535 1.616249 -3.520063 9.044279 0.2936123 17.15234 -6.858417 0.6874323 18.91188 1.350365 0.4283739 -17.96372 2.87442 -3.182785 -32.73482 12.78257 90.68354 18.12471 -11.34088 -0 0 29.76759 -22.64968 15.17893 13.66807 0.5937251 -23.25302 -8.861187 -94.33323 8.395273 40.24144 0 0 -8.465146 5.787539 13.35017 6.389585
-1655.677 101.7115 2151.188 -6.842634 0.007051226 -89.61236 4.260177 16.38929 0.8535126 -0 10.30048 -0 -8.486876 -14.7415 -0.934076 2.579915 -22.54385 -3.623008 -0 16.36092 -0 -0.02184486 -4.033767 18.4072 1.585457 -3.509122 9.229969 0.2450425 17.11392 -6.672875 0.7109738 18.88104 1.137596 0.2706572 -17.81292 2.800456 -3.148036 -33.18434 12.711 90.16106 18.1923 -10.30751 -0 0 30.75957 -22.6069 15.3083 14.0785 0.3646992 -22.72627 -8.619252 -95.00085 8.335583 41.50925 0 0 -6.792598 5.340814 13.25756 7.035258
-1661.821 100.647 2152.056 -7.295743 -0.1739351 -90.14535 3.286098 18.79229 0.6149992 -0 14.03778 -0 -8.464493 -12.85963 -0.628491 1.796767 -21.11284 -4.725006 -0 12.32312 -0 -0.4532228 -4.245163 19.09829 1.550365 -3.496067 9.343795 0.206877 17.07542 -6.545938 0.7216257 18.87533 1.015899 0.2002467 -17.69745 2.743701 -3.098564 -33.4359 12.66696 89.79279 18.26607 -9.641431 -0 0 31.37694 -22.57294 15.35228 14.30487 0.2421712 -22.39326 -8.464976 -95.41551 8.27482 42.25657 0 0 -5.690965 5.107622 13.20745 7.354109
-1668.34 99.90481 2152.951 -8.035728 -0.4495392 -90.61676 2.371739 20.3565 0.1080668 -0 18.94198 -0 -8.837932 -8.970385 -0.09137768 0.5693487 -18.73421 -5.988103 -0 10.82499 -0 -0.7525248 -4.674384 19.7725 1.516721 -3.481069 9.3783 0.1819512 17.04191 -6.485096 0.7198719 18.89262 0.9892864 0.2155672 -17.62609 2.708605 -3.041782 -33.48512 12.65203 89.6039 18.34168 -9.374873 -0 0 31.59397 -22.54993 15.31862 14.3452 0.2290454 -22.26761 -8.40814 -95.56184 8.232071 42.46668 0 0 -5.210092 5.084064 13.20733 7.355342
-1675.139 99.65892 2153.855 -8.855608 -0.7505103 -90.99329 1.596508 20.77332 -0.5814212 -0 24.71553 -0 -9.596571 -3.722364 0.6645481 -0.8814019 -15.84087 -7.236903 -0 11.42198 -0 -0.8422315 -5.314779 20.28416 1.490373 -3.464491 9.330955 0.1729392 17.01709 -6.493406 0.7079268 18.92979 1.056177 0.3067862 -17.60977 2.701967 -2.98926 -33.33828 12.66484 89.6135 18.40887 -9.517553 -0 0 31.40235 -22.54135 15.21951 14.21161 0.3200417 -22.35002 -8.449042 -95.44098 8.221513 42.14929 0 0 -5.373284 5.253541 13.25526 7.070879
-1682.046 99.98305 2154.754 -9.565779 -1.01842 -91.22792 0.9807703 19.79046 -1.315048 -0 30.8962 -0 -10.64132 1.952119 1.531401 -2.346788 -12.73367 -8.362961 -0 13.32808 -0 -0.6966638 -6.148154 20.51444 1.475946 -3.447003 9.20354 0.1819062 17.0024 -6.569858 0.6891828 18.98409 1.210901 0.4590443 -17.65948 2.731751 -2.954478 -33.00774 12.70166 89.8333 18.4529 -10.06071 -0 0 30.80624 -22.55147 15.06757 13.92478 0.5041964 -22.63151 -8.580178 -95.06495 8.251451 41.32944 0 0 -6.18283 5.592656 13.34221 6.544572
-1688.848 100.8257 2155.637 -10.04386 -1.216949 -91.27661 0.5027717 17.28488 -1.965698 -0 36.77883 -0 -11.7854 7.082941 2.315502 -3.647984 -9.551868 -9.313047 -0 15.61829 -0 -0.367858 -7.180876 20.40962 1.475847 -3.430032 9.002179 0.2100191 16.99708 -6.710159 0.6674011 19.05363 1.444228 0.655391 -17.78324 2.804794 -2.949925 -32.50993 12.7575 90.26484 18.45704 -10.97949 -0 0 29.82194 -22.58394 14.87337 13.50882 0.7667341 -23.09603 -8.788432 -94.45273 8.323177 40.04216 0 0 -7.621163 6.075588 13.45489 5.823258
-1695.353 102.0149 2156.489 -10.24677 -1.332547 -91.11807 0.1313321 13.32393 -2.474983 -0 41.42447 -0 -12.78909 10.90714 2.791201 -4.649873 -6.311765 -10.06551 -0 17.43544 -0 0.008775519 -8.461972 19.99841 1.489804 -3.416277 8.73809 0.2573731 16.99884 -6.907434 0.6458273 19.13671 1.742938 0.8788546 -17.98265 2.923986 -2.984085 -31.86619 12.82715 90.89545 18.40579 -12.23242 -0 0 28.48274 -22.64 14.64498 12.98808 1.089935 -23.72148 -9.057021 -93.62974 8.429166 38.3347 0 0 -9.645922 6.676169 13.57779 4.951512
-1701.445 103.2951 2157.286 -10.19742 -1.37307 -90.76922 -0.1522241 8.191082 -2.86972 -0 43.84336 -0 -13.43646 13.05113 2.799126 -5.285671 -2.980159 -10.61457 -0 18.19528 -0 0.2622322 -10.06191 19.38988 1.515029 -3.40974 8.42837 0.3227702 17.00514 -7.15246 0.6264239 19.23054 2.089305 1.113839 -18.25033 3.085774 -3.058859 -31.1056 12.90616 91.69441 18.28872 -13.75873 -0 0 26.84679 -22.71734 14.38928 12.38651 1.45353 -24.47909 -9.367053 -92.63063 8.551515 36.27464 0 0 -12.18025 7.367909 13.69469 3.970073
-1707.112 104.3899 2158.001 -9.956749 -1.365502 -90.28788 -0.3511993 2.348666 -3.222611 -0 43.3442 -0 -13.6073 13.57864 2.327582 -5.577968 0.4537021 -10.96481 -0 17.73609 -0 0.2854468 -12.0117 18.74648 1.546984 -3.414838 8.09571 0.4033576 17.01438 -7.433356 0.6094179 19.33001 2.461618 1.347335 -18.56892 3.278983 -3.168038 -30.26743 12.99144 92.61143 18.10469 -15.47616 -0 0 25.00304 -22.81019 14.114 11.7289 1.835573 -25.33198 -9.698922 -91.50352 8.662649 33.95896 0 0 -15.10279 8.122915 13.79018 2.91675
-1712.44 105.0722 2158.602 -9.588343 -1.345822 -89.75809 -0.4546325 -3.666811 -3.584213 -0 39.88082 -0 -13.28806 12.87776 1.5028 -5.62901 3.932107 -11.1281 -0 16.33046 -0 0.1253371 -14.23393 18.22974 1.580521 -3.43465 7.766096 0.4942883 17.02653 -7.735134 0.593344 19.42749 2.836341 1.570121 -18.91258 3.48573 -3.297456 -29.40075 13.08128 93.57954 17.86532 -17.28261 -0 0 23.06995 -22.91074 13.82943 11.04276 2.214339 -26.23474 -10.03373 -90.31246 8.730155 31.51728 0 0 -18.24411 8.910899 13.85183 1.828225
-1717.579 105.2182 2159.073 -9.127192 -1.33851 -89.26305 -0.4323325 -9.37613 -3.938405 -0 34.14501 -0 -12.54444 11.45805 0.5075856 -5.572292 7.31807 -11.11736 -0 14.53793 -0 -0.02225588 -16.51563 17.93515 1.611031 -3.469062 7.464613 0.5887861 17.04286 -8.039863 0.5756708 19.51402 3.191374 1.777443 -19.25067 3.684587 -3.427319 -28.55988 13.1746 94.52337 17.59564 -19.06397 -0 0 21.18391 -23.01079 13.54876 10.35906 2.570881 -27.13515 -10.35457 -89.13458 8.725695 29.10403 0 0 -21.39587 9.699101 13.87286 0.7416632
-1722.694 104.8271 2159.418 -8.569026 -1.337758 -88.85976 -0.23613 -14.44668 -4.212727 -0 27.30422 -0 -11.5103 9.78184 -0.4874588 -5.512258 10.41878 -10.94214 -0 12.98756 -0 0.06457221 -18.5518 17.84635 1.635226 -3.51394 7.21078 0.67894 17.06468 -8.32803 0.5539001 19.58161 3.508943 1.968332 -19.55311 3.85513 -3.536538 -27.79694 13.26978 95.371 17.33034 -20.70719 -0 0 19.4791 -23.10281 13.28669 9.710992 2.890986 -27.97879 -10.64727 -88.05082 8.635063 26.87906 0 0 -24.33466 10.45325 13.85415 -0.304187
